# xmcd
#
# Track frame offsets:
# 150
# 17469
# 35605
# 51956
# 68220
# 80686
# 96256
# 110158
# 122080
# 133609
# 143005
# 160078
# 177111
#
# Disc length: 2630 seconds
#
#
# Revision: 0
# Processed by: cddbd v1.5.2PL0 Copyright (c) Steve Scherf et al.
# Submitted via: FreeRIP 2.90 
#
DISCID=b00a440d
DTITLE=Varios - Salve Jorge
DYEAR=2012
DGENRE=Country
TTITLE0=Leandro Sapucahy - Favela fashion week
TTITLE1=Pericles - Danca do bole bole
TTITLE2=Gaby Amarantos - Ela ta beba doida
TTITLE3=Mc Naldo - Meu corpe quer voce
TTITLE4=Maria Rita - Me deixa louca
TTITLE5=Seu Jorge - Salve jorge abertura
TTITLE6=Jeito Moleque - De cara pro gol
TTITLE7=Mc Koringa - Danca sensual
TTITLE8=Thiaguinho - Ousadia e alegria
TTITLE9=Trio Preto - Batucada quente
TTITLE10=Jammil e Uma Noite - Celebrar
TTITLE11=Roberto Carlos - Furduncio
TTITLE12=Roberto Carlos - Esse cara sou eu
EXTD=
EXTT0=
EXTT1=
EXTT2=
EXTT3=
EXTT4=
EXTT5=
EXTT6=
EXTT7=
EXTT8=
EXTT9=
EXTT10=
EXTT11=
EXTT12=
PLAYORDER=
